<svg width="60" height="60" viewBox="0 0 60 60" fill="none" xmlns="http://www.w3.org/2000/svg">
<path d="M26.3242 17.875C32.621 14.2395 40.379 14.2395 46.6758 17.875C52.9726 21.5105 56.8516 28.2291 56.8516 35.5C56.8516 42.7709 52.9726 49.4895 46.6758 53.125C40.379 56.7605 32.621 56.7605 26.3242 53.125C20.0274 49.4895 16.1484 42.7709 16.1484 35.5C16.1484 28.2291 20.0274 21.5105 26.3242 17.875Z" fill="#F1E678"/>
<path d="M22.0653 5.52895C14.2503 7.48706 8.09875 13.6401 6.14282 21.456M32.2224 5.40234C40.2903 7.20909 46.6783 13.463 48.6786 21.456M6 31.5271C7.78278 39.6306 14.0488 46.0531 22.0653 48.0617M48.8214 31.5271C46.9993 39.8096 40.4936 46.336 32.2224 48.1883" stroke="#4E8925" stroke-width="2" stroke-linecap="round" stroke-linejoin="round"/>
<path d="M29.327 4.83735C29.327 5.85208 28.5044 6.67468 27.4897 6.67468C26.4749 6.67468 25.6523 5.85208 25.6523 4.83735C25.6523 3.82262 26.4749 3.00002 27.4897 3.00002C28.5044 3.00002 29.327 3.82262 29.327 4.83735Z" fill="#4E8925"/>
<path d="M29.327 48.681C29.327 49.6958 28.5044 50.5184 27.4897 50.5184C26.4749 50.5184 25.6523 49.6958 25.6523 48.681C25.6523 47.6663 26.4749 46.8437 27.4897 46.8437C28.5044 46.8437 29.327 47.6663 29.327 48.681Z" fill="#4E8925"/>
<path d="M7.67466 26.5092C7.67466 27.5239 6.85206 28.3465 5.83733 28.3465C4.8226 28.3465 4 27.5239 4 26.5092C4 25.4945 4.8226 24.6719 5.83733 24.6719C6.85206 24.6719 7.67466 25.4945 7.67466 26.5092Z" fill="#4E8925"/>
<path d="M51.4403 26.5092C51.4403 27.5239 50.6177 28.3465 49.603 28.3465C48.5882 28.3465 47.7656 27.5239 47.7656 26.5092C47.7656 25.4945 48.5882 24.6719 49.603 24.6719C50.6177 24.6719 51.4403 25.4945 51.4403 26.5092Z" fill="#4E8925"/>
<circle cx="27" cy="35.375" r="1.5" fill="#4E8925"/>
<path d="M21 20.375C21 17.0613 23.6863 14.375 27 14.375C30.3137 14.375 33 17.0613 33 20.375C33 23.6887 28.5 24.875 27.375 27.125C26.25 29.375 27.375 32.375 27.375 32.375" stroke="#4E8925" stroke-width="2"/>
<rect x="24" y="30.875" width="6" height="3" fill="#F1E678"/>
</svg>
