<svg width="60" height="60" viewBox="0 0 60 60" fill="none" xmlns="http://www.w3.org/2000/svg">
<path d="M34.6244 23.24C36.3469 20.2533 40.6531 20.2533 42.3756 23.24L57.3938 49.28C59.1163 52.2667 56.9631 56 53.5181 56H23.4819C20.0369 56 17.8837 52.2667 19.6062 49.28L34.6244 23.24Z" fill="#F1E678"/>
<path d="M25.134 11.5C25.5189 10.8333 26.4811 10.8333 26.866 11.5L45.9186 44.5C46.3035 45.1667 45.8224 46 45.0526 46H6.94744C6.17764 46 5.69651 45.1667 6.08142 44.5L25.134 11.5Z" stroke="#4E8925" stroke-width="2" stroke-linecap="round" stroke-linejoin="round"/>
<line x1="26" y1="20" x2="26" y2="34" stroke="#4E8925" stroke-width="2" stroke-linecap="round" stroke-linejoin="round"/>
<path d="M28 40C28 41.1045 27.1046 42 26 42C24.8954 42 24 41.1045 24 40C24 38.8954 24.8954 38 26 38C27.1046 38 28 38.8954 28 40Z" fill="#4E8925"/>
</svg>
