<svg width="60" height="60" viewBox="0 0 60 60" fill="none" xmlns="http://www.w3.org/2000/svg">
<rect x="16" y="20" width="42" height="36" rx="4" fill="#F1E678"/>
<path d="M13 34H11C8.79086 34 7 32.2091 7 30V14C7 11.7909 8.79086 10 11 10H44C46.2091 10 48 11.7909 48 14V30C48 32.2091 46.2091 34 44 34H39.435C39.1576 34 38.8926 34.1153 38.7034 34.3182L33.7295 39.6552C33.1095 40.3165 32 39.8778 32 38.9712V34.5V34.5C32 34.2239 31.7761 34 31.5 34H23" stroke="#4E8925" stroke-width="2"/>
<line x1="13" y1="17" x2="42" y2="17" stroke="#4E8925" stroke-width="2" stroke-linecap="round" stroke-linejoin="round"/>
<line x1="28" y1="23" x2="42" y2="23" stroke="#4E8925" stroke-width="2" stroke-linecap="round" stroke-linejoin="round"/>
<path d="M23.7412 31.6529C23.7412 34.775 21.2103 37.3059 18.0882 37.3059C14.9662 37.3059 12.4353 34.775 12.4353 31.6529C12.4353 28.5309 14.9662 26 18.0882 26C21.2103 26 23.7412 28.5309 23.7412 31.6529Z" stroke="#4E8925" stroke-width="2"/>
<path d="M28.0604 48.2624C28.1114 48.6691 27.765 49.1333 27.165 49.1333H27.068H26.9717H26.8762H26.7815H26.6875H26.5942H26.5017H26.4099H26.3189H26.2286H26.139H26.0502H25.9621H25.8747H25.788H25.702H25.6168H25.5323H25.4485H25.3653H25.2829H25.2012H25.1202H25.0398H24.9602H24.8812H24.803H24.7254H24.6484H24.5722H24.4966H24.4217H24.3475H24.2739H24.201H24.1287H24.0571H23.9861H23.9158H23.8461H23.7771H23.7087H23.6409H23.5738H23.5073H23.4414H23.3762H23.3115H23.2475H23.1841H23.1213H23.0591H22.9975H22.9365H22.8761H22.8163H22.7571H22.6985H22.6405H22.583H22.5262H22.4699H22.4142H22.359H22.3044H22.2504H22.1969H22.144H22.0917H22.0399H21.9886H21.9379H21.8878H21.8382H21.7891H21.7405H21.6925H21.645H21.5981H21.5516H21.5057H21.4603H21.4154H21.371H21.3271H21.2837H21.2409H21.1985H21.1566H21.1152H21.0743H21.0338H20.9939H20.9544H20.9154H20.8769H20.8389H20.8013H20.7642H20.7275H20.6913H20.6556H20.6203H20.5854H20.551H20.5171H20.4836H20.4505H20.4178H20.3856H20.3538H20.3224H20.2915H20.2609H20.2308H20.2011H20.1718H20.1429H20.1144H20.0863H20.0587H20.0314H20.0044H19.9779H19.9518H19.926H19.9006H19.8756H19.851H19.8267H19.8028H19.7793H19.7561H19.7333H19.7108H19.6887H19.667H19.6455H19.6245H19.6037H19.5833H19.5632H19.5435H19.5241H19.505H19.4862H19.4677H19.4496H19.4318H19.4142H19.397H19.3801H19.3635H19.3471H19.3311H19.3154H19.2999H19.2847H19.2698H19.2552H19.2409H19.2268H19.213H19.1995H19.1862H19.1732H19.1604H19.1479H19.1357H19.1237H19.1119H19.1004H19.0891H19.0781H19.0672H19.0566H19.0463H19.0361H19.0262H19.0165H19.007H18.9977H18.9887H18.9798H18.9711H18.9627H18.9544H18.9463H18.9384H18.9307H18.9232H18.9158H18.9087H18.9017H18.8948H18.8882H18.8817H18.8754H18.8692H18.8632H18.8573H18.8516H18.846H18.8406H18.8353H18.8302H18.8252H18.8203H18.8155H18.8109H18.8064H18.802H18.7978H18.7936H18.7895H18.7856H18.7818H18.778H18.7744H18.7708H18.7674H18.764H18.7608H18.7576H18.7544H18.7514H18.7484H18.7455H18.7427H18.7399H18.7372H18.7346H18.732H18.7294H18.727H18.7245H18.7221H18.7197H18.7174H18.7151H18.7129H18.7106H18.7084H18.7062H18.7041H18.7019H18.6998H18.6976H18.6955H18.6934H18.6912H18.6891H18.687H18.6848H18.6827H18.6805H18.6783H18.6761H18.6739H18.6716H18.6693H18.667H18.6646H18.6622H18.6598H18.6573H18.6548H18.6522H18.6495H18.6468H18.6441H18.6413H18.6384H18.6354H18.6324H18.6292H18.6261H18.6228H18.6194H18.616H18.6124H18.6088H18.6051H18.6012H18.5973H18.5933H18.5891H18.5848H18.5805H18.576H18.5713H18.5666H18.5617H18.5567H18.5516H18.5463H18.5409H18.5353H18.5296H18.5238H18.5178H18.5116H18.5053H18.4988H18.4921H18.4853H18.4783H18.4712H18.4639H18.4563H18.4486H18.4408H18.4327H18.4244H18.416H18.4073H18.3984H18.3894H18.3801H18.3706H18.3609H18.351H18.3409H18.3305H18.32H18.3092H18.2981H18.2869H18.2753H18.2636H18.2516H18.2394H18.2269H18.2141H18.2011H18.1879H18.1743H18.1606H18.1465H18.1322H18.1176H18.1027H18.0875H18.0721H18.0564H18.0404H18.0241H18.0075H17.9905H17.9733H17.9558H17.938H17.9199H17.9014H17.8827H17.8636H17.8442H17.8245H17.8044H17.784H17.7633H17.7422H17.7208H17.6991H17.677H17.6545H17.6317H17.6086H17.5851H17.5612H17.5369H17.5123H17.4874H17.462H17.4363H17.4101H17.3836H17.3567H17.3295H17.3018H17.2737H17.2452H17.2164H17.1871H17.1574H17.1273H17.0968H17.0659H17.0345H17.0028H16.9706H16.9379H16.9049H16.8714H16.8374H16.8031H16.7682H16.733H16.6972H16.6611H16.6244H16.5873H16.5498H16.5118H16.4733H16.4343H16.3949H16.355H16.3146H16.2737H16.2323H16.1904H16.1481H16.1052H16.0619H16.018H15.9737H15.9288H15.8834H15.8375H15.7911H15.7441H15.6967H15.6487H15.6002H15.5511H15.5015H15.4514H15.4007H15.3495H15.2978H15.2454H15.1926H15.1391H15.0851H15.0306H14.9755H14.9198H14.8635H14.8067H14.7493H14.6913H14.6327H14.5735H14.5137H14.4534H14.3924H14.3309H14.2687H14.2059H14.1426H14.0786H14.014H13.9487H13.8829H13.8164H13.7493H13.6816H13.6132H13.5442H13.4746H13.4043H13.3334H13.2618H13.1896H13.1167H13.0431H12.9689H12.8941H12.8185H12.7423H12.6654H12.5879H12.5096H12.4307H12.3511H12.2708H12.1898H12.1081H12.0258H11.9427H11.8589H11.7744H11.6892H11.6033H11.5167H11.4293H11.3412H11.2524H11.1629H11.0726H10.9817H10.8899H10.7975H10.7042H10.6103H10.5156H10.4201H10.3239H10.2269H10.1292H10.0307H9.93138H9.83133H9.73051H9.62892H9.52654H9.42338H9.31943H9.2147H9.10917H9.00284C8.4093 49.1333 8.06436 48.675 8.11606 48.2624C8.87476 42.2078 13.1739 37.8274 18.0882 37.8274C23.0026 37.8274 27.3017 42.2078 28.0604 48.2624Z" stroke="#4E8925" stroke-width="2" stroke-linecap="round" stroke-linejoin="round"/>
</svg>
