<svg width="100" height="100" fill="none" xmlns="http://www.w3.org/2000/svg">
    <circle cx="54" cy="54" r="22" fill="#F1E678"/>
    <circle cx="46" cy="47" r="19" stroke="#4E8925" stroke-width="2"/>
    <path d="M54.694 42.156c-.195 2.701-2.198 4.782-4.383 4.782s-4.192-2.08-4.383-4.782c-.2-2.81 1.751-4.781 4.383-4.781s4.582 2.023 4.383 4.781z" stroke="#4E8925" stroke-width="2" stroke-linecap="round" stroke-linejoin="round"/>
    <path d="M60.637 58.813C58.86 54.413 54.777 51 50.45 51c-6.81 0-11.57 7.813-11.31 13.813" stroke="#4E8925" stroke-width="2" stroke-miterlimit="10"/>
    <path d="M41.284 43.348c-.155 2.157-1.774 3.855-3.52 3.855-1.744 0-3.366-1.698-3.519-3.855-.158-2.244 1.418-3.848 3.52-3.848 2.102 0 3.678 1.645 3.52 3.848z" stroke="#4E8925" stroke-width="2" stroke-linecap="round" stroke-linejoin="round"/>
</svg>
